<svg width="56" height="54" viewBox="0 0 56 54" fill="none" xmlns="http://www.w3.org/2000/svg">
<path d="M11.3815 41.6573L12.6428 49.2444C12.7655 50.0177 13.0849 50.7464 13.5705 51.3606C14.0561 51.9748 14.6914 52.4538 15.4155 52.7515C16.1396 53.0493 16.9281 53.1559 17.7053 53.0609C18.4825 52.966 19.2222 52.6728 19.8533 52.2095L26.0661 47.7006L32.3164 52.1907C33.0865 52.7466 34.0118 53.0463 34.9615 53.0473C35.5655 53.0483 36.1637 52.93 36.7218 52.699C37.4379 52.4048 38.0666 51.9318 38.5478 51.3254C39.029 50.7189 39.3467 49.9992 39.4705 49.235L40.7318 41.6479L48.3189 40.3866C49.0842 40.2614 49.8049 39.943 50.4127 39.4614C51.0206 38.9799 51.4955 38.3511 51.7924 37.6347C52.0893 36.9183 52.1985 36.138 52.1095 35.3677C52.0205 34.5973 51.7364 33.8624 51.284 33.2325L46.7375 26.8974L42.9157 29.6555L47.3211 35.7929L39.847 37.0355C38.9038 37.1889 38.0327 37.635 37.357 38.3108C36.6813 38.9865 36.2352 39.8575 36.0817 40.8007L34.9145 48.2466L28.73 43.813C27.9507 43.2849 27.031 43.0026 26.0896 43.0026C25.1482 43.0026 24.2285 43.2849 23.4492 43.813L17.3118 48.2183L16.0692 40.7443C15.9158 39.8011 15.4696 38.93 14.7939 38.2543C14.1182 37.5786 13.2471 37.1324 12.3039 36.979L4.79221 35.7929L9.22583 29.6084C9.74706 28.8388 10.0257 27.9305 10.0257 27.001C10.0257 26.0714 9.74706 25.1632 9.22583 24.3935L4.79221 18.1902L12.3228 16.9477C13.266 16.7942 14.137 16.3481 14.8128 15.6724C15.4885 14.9967 15.9346 14.1256 16.0881 13.1824L17.3306 5.70832L23.4774 10.1231C24.2533 10.6774 25.1831 10.9754 26.1367 10.9754C27.0902 10.9754 28.02 10.6774 28.7959 10.1231L34.9145 5.73656L35.3098 8.09927L39.9505 7.32739L39.5175 4.74817C39.39 3.98422 39.0702 3.26528 38.5882 2.65898C38.1063 2.05269 37.478 1.57898 36.7625 1.28242C36.047 0.985867 35.2678 0.876218 34.4982 0.96379C33.7287 1.05136 32.9941 1.33328 32.3635 1.78301L26.0661 6.28252L19.7969 1.75477C19.1665 1.30453 18.4317 1.02247 17.6619 0.935231C16.8922 0.847996 16.1129 0.958472 15.3978 1.25622C14.6826 1.55397 14.0552 2.02915 13.5748 2.63687C13.0944 3.24459 12.7769 3.96477 12.6522 4.72935L11.3815 12.3258L3.85089 13.5872C3.0854 13.7139 2.36484 14.0337 1.75724 14.5162C1.14965 14.9988 0.675071 15.6283 0.378315 16.3452C0.0815602 17.0621 -0.0275785 17.8428 0.0612039 18.6136C0.149986 19.3845 0.43376 20.1199 0.885732 20.7506L5.29111 26.8786L5.36642 26.9916L0.838666 33.2608C0.390235 33.8936 0.110788 34.6304 0.026795 35.4015C-0.0571981 36.1725 0.0570438 36.9523 0.358699 37.6668C0.660355 38.3814 1.13944 39.0071 1.75056 39.4847C2.36169 39.9623 3.08462 40.2759 3.85089 40.396L11.3815 41.6573Z" fill="#A8366F"/>
<path d="M29.4546 27.6228L20.9827 19.1509L17.6504 22.4832L27.7884 32.64C28.0075 32.8634 28.269 33.0409 28.5575 33.1621C28.846 33.2832 29.1558 33.3457 29.4687 33.3457C29.7816 33.3457 30.0914 33.2832 30.3799 33.1621C30.6684 33.0409 30.9298 32.8634 31.1489 32.64L55.9998 7.78914L52.6393 4.40039L29.4546 27.6228Z" fill="#A8366F"/>
</svg>
