<svg width="56" height="54" viewBox="0 0 56 54" fill="none" xmlns="http://www.w3.org/2000/svg">
<path d="M11.3815 41.6569L12.6428 49.2439C12.7655 50.0172 13.0849 50.7459 13.5705 51.3601C14.0561 51.9743 14.6914 52.4533 15.4155 52.751C16.1396 53.0488 16.9282 53.1554 17.7053 53.0604C18.4825 52.9655 19.2222 52.6723 19.8533 52.2091L26.0661 47.7001L32.3164 52.1902C33.0865 52.7461 34.0118 53.0458 34.9615 53.0468C35.5655 53.0478 36.1637 52.9295 36.7218 52.6985C37.4379 52.4043 38.0666 51.9314 38.5478 51.3249C39.029 50.7184 39.3467 49.9987 39.4705 49.2345L40.7318 41.6474L48.3189 40.3861C49.0842 40.2609 49.8049 39.9425 50.4127 39.4609C51.0206 38.9794 51.4955 38.3506 51.7924 37.6342C52.0893 36.9179 52.1985 36.1375 52.1095 35.3672C52.0205 34.5968 51.7364 33.8619 51.284 33.232L46.7375 26.897L42.9157 29.655L47.3211 35.7924L39.847 37.035C38.9038 37.1884 38.0327 37.6346 37.357 38.3103C36.6813 38.986 36.2352 39.8571 36.0817 40.8003L34.9145 48.2461L28.73 43.8125C27.9507 43.2844 27.031 43.0021 26.0896 43.0021C25.1482 43.0021 24.2285 43.2844 23.4492 43.8125L17.3118 48.2179L16.0692 40.7438C15.9158 39.8006 15.4696 38.9295 14.7939 38.2538C14.1182 37.5781 13.2471 37.1319 12.3039 36.9785L4.79221 35.7924L9.22583 29.608C9.74706 28.8383 10.0257 27.9301 10.0257 27.0005C10.0257 26.0709 9.74706 25.1627 9.22583 24.393L4.79221 18.1897L12.3228 16.9472C13.266 16.7937 14.137 16.3476 14.8128 15.6719C15.4885 14.9962 15.9346 14.1251 16.0881 13.1819L17.3306 5.70783L23.4774 10.1226C24.2533 10.6769 25.1831 10.9749 26.1367 10.9749C27.0902 10.9749 28.02 10.6769 28.7959 10.1226L34.9145 5.73607L35.3098 8.09878L39.9505 7.3269L39.5175 4.74768C39.39 3.98373 39.0702 3.26479 38.5882 2.65849C38.1063 2.0522 37.478 1.57849 36.7625 1.28193C36.047 0.985379 35.2678 0.875729 34.4982 0.963302C33.7287 1.05087 32.9941 1.33279 32.3635 1.78252L26.0661 6.28204L19.7969 1.75428C19.1665 1.30404 18.4317 1.02198 17.6619 0.934743C16.8922 0.847507 16.1129 0.957984 15.3978 1.25573C14.6826 1.55348 14.0552 2.02867 13.5748 2.63638C13.0944 3.2441 12.7769 3.96428 12.6522 4.72886L11.3815 12.3253L3.85089 13.5867C3.0854 13.7134 2.36484 14.0332 1.75724 14.5157C1.14965 14.9983 0.675071 15.6278 0.378315 16.3447C0.0815602 17.0616 -0.0275785 17.8423 0.0612039 18.6132C0.149986 19.384 0.43376 20.1194 0.885732 20.7501L5.29111 26.8781L5.36642 26.9911L0.838666 33.2603C0.390235 33.8931 0.110788 34.63 0.026795 35.401C-0.0571981 36.1721 0.0570438 36.9518 0.358699 37.6663C0.660355 38.3809 1.13944 39.0066 1.75056 39.4842C2.36169 39.9618 3.08462 40.2755 3.85089 40.3955L11.3815 41.6569Z" fill="#005559"/>
<path d="M29.4546 27.6218L20.9827 19.1499L17.6504 22.4822L27.7884 32.639C28.0075 32.8625 28.269 33.0399 28.5575 33.1611C28.846 33.2823 29.1558 33.3447 29.4687 33.3447C29.7816 33.3447 30.0914 33.2823 30.3799 33.1611C30.6684 33.0399 30.9298 32.8625 31.1489 32.639L55.9998 7.78817L52.6393 4.39941L29.4546 27.6218Z" fill="#005559"/>
</svg>
