<svg width="54" height="60" viewBox="0 0 54 60" fill="none" xmlns="http://www.w3.org/2000/svg">
<path d="M24.2222 2.5C11.95 2.5 2 12.2487 2 24.2772C2 28.383 3.15833 32.2248 5.175 35.5M33.9444 27.25V32.75M42.2778 27.25V32.75M33.9444 5.25V10.75M42.2778 5.25V10.75M29.7778 14.875H24.2222M29.7778 23.125H24.2222M52 14.875H46.4444M52 23.125H46.4444M32.5556 49.25L32.1944 51.0292C31.8056 52.9735 31.6083 53.9442 31.1667 54.7142C30.4861 55.901 29.3842 56.7949 28.075 57.2223C27.2278 57.5 26.2222 57.5 24.2222 57.5C22.2222 57.5 21.2167 57.5 20.3694 57.225C19.0598 56.797 17.9578 55.9021 17.2778 54.7142C16.8361 53.9442 16.6389 52.9735 16.25 51.0292L15.8889 49.25M40.8889 10.75H35.3333C32.7139 10.75 31.4056 10.75 30.5917 11.5558C29.7778 12.3615 29.7778 13.6567 29.7778 16.25V21.75C29.7778 24.3433 29.7778 25.6385 30.5917 26.4442C31.4056 27.25 32.7139 27.25 35.3333 27.25H40.8889C43.5083 27.25 44.8167 27.25 45.6306 26.4442C46.4444 25.6385 46.4444 24.3433 46.4444 21.75V16.25C46.4444 13.6567 46.4444 12.3615 45.6306 11.5558C44.8167 10.75 43.5083 10.75 40.8889 10.75ZM11.3972 44.0195C11.1417 43.2605 11.0139 42.8782 11.0278 42.5702C11.0435 42.2518 11.1521 41.9446 11.3404 41.686C11.5287 41.4273 11.7887 41.2282 12.0889 41.1128C12.3778 41 12.7833 41 13.5889 41H34.8556C35.6639 41 36.0667 41 36.3556 41.11C36.6562 41.2257 36.9164 41.4252 37.1048 41.6844C37.2931 41.9436 37.4015 42.2513 37.4167 42.5702C37.4306 42.8782 37.3028 43.2577 37.0472 44.0195C36.575 45.4247 36.3389 46.1288 35.975 46.698C35.2139 47.8877 34.0208 48.743 32.6417 49.0877C31.9806 49.25 31.2361 49.25 29.7444 49.25H18.7C17.2083 49.25 16.4611 49.25 15.8028 49.085C14.4241 48.7409 13.2311 47.8866 12.4694 46.698C12.1056 46.1288 11.8694 45.4247 11.3972 44.0195Z" stroke="#005559" stroke-width="4" stroke-linecap="round" stroke-linejoin="round"/>
</svg>
