<svg width="148" height="50" viewBox="0 0 148 50" fill="none" xmlns="http://www.w3.org/2000/svg">
<path fill-rule="evenodd" clip-rule="evenodd" d="M114.681 18.2845L117.676 26.8644H111.996L114.681 18.2845ZM85.3713 35.8091C85.8048 35.8091 86.1693 35.6563 86.4649 35.3555C86.7604 35.0498 86.9082 34.6898 86.9082 34.2707V16.7707C86.9082 16.3368 86.7604 15.9719 86.4649 15.676C86.1693 15.3802 85.8048 15.2322 85.3713 15.2322C84.9378 15.2322 84.5733 15.3802 84.2777 15.676C83.9822 15.9719 83.8344 16.3368 83.8344 16.7707V30.4886L74.5096 16.4847C74.2338 16.0853 73.9284 15.7746 73.5983 15.5577C73.2683 15.3407 72.8595 15.2322 72.3718 15.2322C71.958 15.2322 71.5935 15.3802 71.293 15.676C70.9876 15.9719 70.8349 16.3368 70.8349 16.7707V34.2707C70.8349 34.6898 70.9876 35.0498 71.293 35.3555C71.5984 35.6612 71.958 35.8091 72.3718 35.8091C72.7856 35.8091 73.1698 35.6563 73.4653 35.3555C73.7609 35.0498 73.9087 34.6898 73.9087 34.2707V20.6563L83.263 34.5567C83.5241 34.9561 83.8196 35.2667 84.1497 35.4837C84.4797 35.7007 84.8886 35.8091 85.3762 35.8091H85.3713ZM67.7611 35.8091C68.1256 35.8091 68.4409 35.676 68.7118 35.4196C68.9828 35.1583 69.1158 34.8377 69.1158 34.4531C69.1158 34.0685 68.9828 33.7431 68.7118 33.4768C68.4409 33.2056 68.1256 33.0725 67.7611 33.0725H56.7665V26.3713H66.8991C67.2833 26.3713 67.6035 26.2381 67.8646 25.9669C68.1256 25.6957 68.2537 25.3802 68.2537 25.0153C68.2537 24.6504 68.1207 24.3052 67.8646 24.0389C67.6035 23.7677 67.2833 23.6346 66.8991 23.6346H56.7665V17.9738H67.5542C67.9335 17.9738 68.2586 17.8407 68.5197 17.5695C68.7808 17.2983 68.9089 16.9729 68.9089 16.5932C68.9089 16.2135 68.7759 15.888 68.5197 15.6267C68.2586 15.3654 67.9385 15.2372 67.5542 15.2372H55.7517C55.1803 15.2372 54.6926 15.4393 54.2936 15.8387C53.8946 16.2381 53.6927 16.7164 53.6927 17.2736V33.7579C53.6927 34.0685 53.7518 34.3594 53.8749 34.6158C53.9981 34.8772 54.1508 35.0942 54.3429 35.2667C54.535 35.4393 54.7518 35.5774 54.9931 35.6711C55.2345 35.7648 55.4857 35.8141 55.7468 35.8141H67.7562L67.7611 35.8091ZM45.1462 35.8091C46.0673 35.8091 46.9294 35.6711 47.7372 35.39C48.5451 35.1139 49.2495 34.7194 49.8455 34.2164C50.4465 33.7135 50.9194 33.1119 51.2642 32.4166C51.609 31.7214 51.7863 30.9472 51.7863 30.0942C51.7863 29.5715 51.7272 29.0488 51.6041 28.531C51.4809 28.0084 51.274 27.5202 50.9785 27.0715C50.6829 26.6178 50.2938 26.2086 49.8061 25.8338C49.3185 25.459 48.7126 25.1533 47.9835 24.9068C48.3481 24.8032 48.7076 24.6405 49.0623 24.4235C49.417 24.2066 49.7421 23.9206 50.0278 23.5656C50.3135 23.2105 50.5499 22.7865 50.7322 22.3032C50.9145 21.8151 51.0031 21.2431 51.0031 20.5823C51.0031 19.8328 50.875 19.1326 50.614 18.4817C50.3529 17.8308 49.9687 17.2638 49.4662 16.7855C48.9638 16.3072 48.3431 15.9275 47.6042 15.6514C46.8653 15.3752 46.0181 15.2322 45.0625 15.2322H37.5307C36.9593 15.2322 36.4716 15.4344 36.0726 15.8338C35.6736 16.2332 35.4717 16.7115 35.4717 17.2687V33.7529C35.4717 34.0636 35.5308 34.3545 35.6539 34.6109C35.7771 34.8723 35.9298 35.0892 36.1219 35.2618C36.314 35.4344 36.5308 35.5725 36.7721 35.6661C37.0135 35.7598 37.2647 35.8091 37.5258 35.8091H45.1314H45.1462ZM44.5206 26.3713C45.7718 26.3713 46.7718 26.6819 47.5303 27.2983C48.2889 27.9147 48.6633 28.7874 48.6633 29.9216C48.6633 30.893 48.3924 31.6671 47.8407 32.2293C47.2939 32.7963 46.3186 33.0774 44.9098 33.0774H38.5553V26.3762H44.5206V26.3713ZM97.2477 14.8673H97.1492C96.0901 14.8673 95.1197 14.9906 94.2281 15.2322C93.3267 15.4738 92.5435 15.8338 91.8834 16.3022C91.2233 16.7707 90.7061 17.3476 90.3317 18.0231C89.9573 18.7036 89.7702 19.4729 89.7702 20.3456C89.7702 21.2677 89.9475 22.037 90.3022 22.6533C90.6568 23.2697 91.1248 23.7924 91.711 24.2164C92.2922 24.6405 92.9572 24.9906 93.706 25.2569C94.4547 25.5281 95.2182 25.7648 95.9965 25.9768C96.7798 26.1839 97.5433 26.391 98.2871 26.5882C99.0358 26.7904 99.6959 27.037 100.282 27.3328C100.863 27.6287 101.331 27.9936 101.691 28.4275C102.046 28.8614 102.223 29.4088 102.223 30.0695C102.223 30.676 102.07 31.1987 101.765 31.6326C101.459 32.0665 101.07 32.4216 100.592 32.6878C100.115 32.959 99.5875 33.1563 99.0013 33.2894C98.4201 33.4176 97.8585 33.4867 97.3216 33.4867C96.6418 33.4867 95.9818 33.3979 95.3414 33.2253C94.701 33.0527 94.1148 32.7963 93.5976 32.4561C93.0755 32.1159 92.637 31.6967 92.2824 31.1888C91.9277 30.6859 91.6962 30.104 91.5928 29.4433C91.5386 29.0439 91.3908 28.7529 91.1494 28.5705C90.908 28.388 90.6371 28.2944 90.3416 28.2944C89.9967 28.2944 89.6618 28.4275 89.3416 28.6839C89.0214 28.9452 88.8589 29.389 88.8589 30.0153C88.8589 30.5379 89.0165 31.1494 89.3268 31.8545C89.6372 32.5596 90.1347 33.2302 90.8095 33.8614C91.4893 34.4975 92.3661 35.035 93.4548 35.4788C94.5385 35.9226 95.8586 36.1445 97.4004 36.1445C98.4792 36.1445 99.4939 36.0162 100.45 35.7549C101.405 35.4936 102.238 35.104 102.952 34.5813C103.661 34.0586 104.223 33.4078 104.632 32.6237C105.041 31.8397 105.242 30.9226 105.242 29.8575C105.242 28.9009 105.065 28.0922 104.71 27.4314C104.356 26.7707 103.883 26.2135 103.292 25.7598C102.701 25.3062 102.031 24.9364 101.287 24.6504C100.538 24.3644 99.7698 24.1178 98.9816 23.9058C98.1935 23.6987 97.425 23.4965 96.6763 23.3042C95.9276 23.1119 95.2626 22.8851 94.6715 22.6237C94.0803 22.3624 93.6075 22.0419 93.2528 21.6573C92.8981 21.2727 92.7208 20.7894 92.7208 20.1977C92.7208 19.7638 92.8292 19.3742 93.0459 19.0389C93.2626 18.6987 93.568 18.4127 93.9572 18.1809C94.3463 17.9443 94.8094 17.7618 95.3365 17.6336C95.8685 17.5005 96.4448 17.4364 97.0704 17.4364C97.4842 17.4364 97.9226 17.466 98.3708 17.5301C98.824 17.5892 99.2526 17.7125 99.6614 17.8949C100.07 18.0774 100.445 18.3289 100.78 18.6494C101.119 18.9699 101.39 19.394 101.602 19.9166C101.74 20.247 101.922 20.4837 102.149 20.6316C102.376 20.7796 102.617 20.8535 102.878 20.8535C103.243 20.8535 103.578 20.7204 103.883 20.4492C104.188 20.178 104.341 19.818 104.341 19.3644C104.341 18.8269 104.169 18.2845 103.819 17.747C103.469 17.2095 102.981 16.7214 102.346 16.2874C101.711 15.8535 100.957 15.5034 100.08 15.2421C99.2181 14.9857 98.2723 14.8575 97.2526 14.8525L97.2477 14.8673ZM114.814 14.8673H114.759C114.213 14.8723 113.759 15.0301 113.39 15.3358C113.016 15.6464 112.735 16.0656 112.543 16.5882L106.341 33.6938C106.287 33.8516 106.262 34.0143 106.262 34.1918C106.262 34.6454 106.43 35.0251 106.77 35.3407C107.109 35.6514 107.513 35.8091 107.981 35.8091C108.311 35.8091 108.617 35.7253 108.893 35.5626C109.168 35.3999 109.361 35.1583 109.464 34.8476L111.134 29.6306H118.636L120.355 34.5863C120.493 34.9512 120.72 35.247 121.03 35.4738C121.345 35.7007 121.68 35.8141 122.045 35.8141C122.355 35.8141 122.621 35.7549 122.838 35.6316C123.055 35.5084 123.222 35.3604 123.345 35.1731C123.468 34.9906 123.552 34.8032 123.606 34.6109C123.661 34.4186 123.685 34.246 123.685 34.0882C123.685 33.8811 123.641 33.6642 123.557 33.4373L117.015 16.5882C116.823 16.0656 116.543 15.6514 116.168 15.3358C115.799 15.0251 115.346 14.8723 114.799 14.8673H114.814ZM141.281 34.2904V16.751C141.281 16.3269 141.128 15.9669 140.837 15.676C140.542 15.3802 140.177 15.2322 139.744 15.2322C139.31 15.2322 138.946 15.3802 138.65 15.676C138.355 15.9719 138.207 16.3368 138.207 16.7707V30.4886L128.882 16.4847C128.606 16.0853 128.301 15.7746 127.971 15.5577C127.641 15.3407 127.232 15.2322 126.744 15.2322C126.325 15.2322 125.966 15.3802 125.66 15.676C125.355 15.9719 125.207 16.3368 125.207 16.7707V34.2707C125.207 34.6898 125.36 35.0498 125.66 35.3555C125.966 35.6612 126.325 35.8091 126.744 35.8091C127.163 35.8091 127.542 35.6563 127.838 35.3555C128.133 35.0498 128.281 34.6898 128.281 34.2707V20.6563L137.635 34.5567C137.896 34.9561 138.192 35.2667 138.522 35.4837C138.852 35.7007 139.261 35.8091 139.749 35.8091C140.182 35.8091 140.547 35.6563 140.842 35.3555C141.133 35.0547 141.281 34.6997 141.285 34.2904H141.281ZM44.9393 17.9738C45.9639 17.9738 46.7471 18.245 47.284 18.7924C47.821 19.3397 48.0919 20.0399 48.0919 20.893C48.0919 21.3269 47.9983 21.7214 47.8062 22.0813C47.6141 22.4364 47.3629 22.7421 47.0525 22.9936C46.7422 23.245 46.3728 23.4423 45.959 23.5803C45.5403 23.7184 45.1166 23.7875 44.6832 23.7875H38.5602V17.9738H44.9442H44.9393Z" fill="#A8366F"/>
<path fill-rule="evenodd" clip-rule="evenodd" d="M4.36914 33.5307V38.9696L12.9008 43.9203L28.7426 34.6895L28.7722 16.2822L24.0975 19.0041L24.0778 31.9775L12.9008 38.4864L4.36914 33.5307Z" fill="#A8366F"/>
<path fill-rule="evenodd" clip-rule="evenodd" d="M4.36914 12.0908V17.5198L12.9353 12.5296L24.0975 19.004L28.7722 16.2821L12.9403 7.0957L4.36914 12.0908Z" fill="#A8366F"/>
<path fill-rule="evenodd" clip-rule="evenodd" d="M12.6943 19.2459C12.379 19.4332 12.0539 19.6157 11.7387 19.7981C13.4726 20.809 15.2065 21.805 16.9454 22.811C15.6055 23.5802 14.2657 24.3544 12.9258 25.1285L4.36456 20.1828L3.99512 19.9707L4.36456 19.7538L12.9406 14.7686L21.8812 19.951C20.5512 20.7202 19.2162 21.4845 17.8862 22.2538C16.1622 21.2528 14.4282 20.2518 12.6943 19.2459Z" fill="#A8366F"/>
<path fill-rule="evenodd" clip-rule="evenodd" d="M21.8167 31.0504L12.8712 36.2526L4.36907 31.3167L3.93066 31.0652C4.06859 30.9863 4.22129 30.8976 4.36907 30.8088C5.55622 30.1283 6.74337 29.4429 7.93052 28.7624C9.65459 29.7634 11.3885 30.7694 13.1224 31.7703C13.4426 31.5879 13.7579 31.4005 14.083 31.2131C12.3491 30.2122 10.6053 29.2112 8.87629 28.2052C10.2161 27.4311 11.556 26.6619 12.8958 25.8877L21.8266 31.0504H21.8167Z" fill="#A8366F"/>
<path fill-rule="evenodd" clip-rule="evenodd" d="M4.36426 20.7891V25.439C5.74352 26.2328 7.12278 27.0267 8.50204 27.8256C9.84189 27.0514 11.1817 26.2772 12.5216 25.508C10.7827 24.5119 9.05374 23.511 7.31489 22.5001C6.3297 21.933 5.34452 21.3611 4.36426 20.7891Z" fill="#A8366F"/>
<path fill-rule="evenodd" clip-rule="evenodd" d="M18.5261 28.5208C19.6985 29.2012 20.8708 29.8768 22.0333 30.5572V25.9172C20.4718 25.0099 18.9005 24.1026 17.3389 23.1953C15.9942 23.9695 14.6543 24.7436 13.3145 25.5129C15.0484 26.5139 16.7872 27.5198 18.5261 28.5208Z" fill="#A8366F"/>
</svg>
