<svg width="133" height="45" viewBox="0 0 133 45" fill="none" xmlns="http://www.w3.org/2000/svg">
<path fill-rule="evenodd" clip-rule="evenodd" d="M103.213 16.4555L105.908 24.1773H100.797L103.213 16.4555ZM76.8345 32.2276C77.2246 32.2276 77.5527 32.0901 77.8187 31.8194C78.0847 31.5442 78.2177 31.2202 78.2177 30.843V15.093C78.2177 14.7025 78.0847 14.3741 77.8187 14.1078C77.5527 13.8416 77.2246 13.7084 76.8345 13.7084C76.4443 13.7084 76.1163 13.8416 75.8503 14.1078C75.5843 14.3741 75.4513 14.7025 75.4513 15.093V27.4392L67.059 14.8356C66.8107 14.4762 66.5358 14.1966 66.2388 14.0013C65.9418 13.806 65.5738 13.7084 65.1349 13.7084C64.7625 13.7084 64.4344 13.8416 64.164 14.1078C63.8891 14.3741 63.7517 14.7025 63.7517 15.093V30.843C63.7517 31.2202 63.8891 31.5442 64.164 31.8194C64.4389 32.0945 64.7625 32.2276 65.1349 32.2276C65.5073 32.2276 65.8531 32.0901 66.1191 31.8194C66.3851 31.5442 66.5181 31.2202 66.5181 30.843V18.5901L74.937 31.1004C75.172 31.4599 75.438 31.7395 75.735 31.9347C76.032 32.13 76.4 32.2276 76.8389 32.2276H76.8345ZM60.9853 32.2276C61.3134 32.2276 61.5971 32.1078 61.8409 31.8771C62.0848 31.6418 62.2045 31.3534 62.2045 31.0072C62.2045 30.6611 62.0848 30.3682 61.8409 30.1285C61.5971 29.8844 61.3134 29.7646 60.9853 29.7646H51.0901V23.7336H60.2095C60.5553 23.7336 60.8434 23.6137 61.0784 23.3697C61.3134 23.1256 61.4286 22.8416 61.4286 22.5131C61.4286 22.1847 61.3089 21.8741 61.0784 21.6345C60.8434 21.3904 60.5553 21.2705 60.2095 21.2705H51.0901V16.1759H60.7991C61.1405 16.1759 61.4331 16.056 61.668 15.812C61.903 15.5679 62.0183 15.275 62.0183 14.9333C62.0183 14.5916 61.8986 14.2987 61.668 14.0634C61.4331 13.8282 61.1449 13.7129 60.7991 13.7129H50.1768C49.6626 13.7129 49.2237 13.8948 48.8646 14.2543C48.5055 14.6137 48.3237 15.0442 48.3237 15.5457V30.3815C48.3237 30.6611 48.3769 30.9229 48.4877 31.1537C48.5986 31.3889 48.736 31.5842 48.9089 31.7395C49.0818 31.8948 49.2769 32.0191 49.4941 32.1034C49.7113 32.1877 49.9374 32.2321 50.1724 32.2321H60.9809L60.9853 32.2276ZM40.6319 32.2276C41.4609 32.2276 42.2367 32.1034 42.9638 31.8504C43.6909 31.6019 44.3248 31.2469 44.8613 30.7942C45.4021 30.3415 45.8277 29.8001 46.1381 29.1744C46.4484 28.5486 46.608 27.8519 46.608 27.0842C46.608 26.6137 46.5548 26.1433 46.444 25.6773C46.3331 25.2069 46.1469 24.7676 45.8809 24.3637C45.6149 23.9555 45.2647 23.5871 44.8258 23.2498C44.3869 22.9126 43.8416 22.6374 43.1855 22.4155C43.5135 22.3223 43.8372 22.1759 44.1564 21.9806C44.4756 21.7853 44.7682 21.5279 45.0253 21.2084C45.2824 20.8889 45.4952 20.5072 45.6593 20.0723C45.8233 19.633 45.9031 19.1182 45.9031 18.5235C45.9031 17.8489 45.7878 17.2188 45.5529 16.633C45.3179 16.0472 44.9721 15.5368 44.5199 15.1063C44.0677 14.6759 43.5091 14.3342 42.8441 14.0856C42.1791 13.8371 41.4166 13.7084 40.5565 13.7084H33.7779C33.2637 13.7084 32.8248 13.8904 32.4657 14.2498C32.1066 14.6093 31.9248 15.0398 31.9248 15.5413V30.3771C31.9248 30.6566 31.978 30.9185 32.0888 31.1492C32.1997 31.3845 32.3371 31.5797 32.51 31.735C32.6829 31.8904 32.878 32.0146 33.0952 32.0989C33.3124 32.1833 33.5385 32.2276 33.7735 32.2276H40.6186H40.6319ZM40.0688 23.7336C41.1949 23.7336 42.0949 24.0131 42.7776 24.5679C43.4603 25.1226 43.7973 25.9081 43.7973 26.9288C43.7973 27.8031 43.5534 28.4998 43.0569 29.0058C42.5648 29.5161 41.687 29.7691 40.4191 29.7691H34.7001V23.738H40.0688V23.7336ZM87.5232 13.38H87.4346C86.4814 13.38 85.608 13.491 84.8056 13.7084C83.9943 13.9259 83.2894 14.2498 82.6953 14.6714C82.1013 15.093 81.6358 15.6123 81.2988 16.2202C80.9619 16.8327 80.7934 17.525 80.7934 18.3105C80.7934 19.1404 80.953 19.8327 81.2722 20.3874C81.5914 20.9421 82.0126 21.4126 82.5402 21.7942C83.0633 22.1759 83.6618 22.491 84.3357 22.7306C85.0095 22.9747 85.6967 23.1877 86.3972 23.3785C87.1021 23.5649 87.7892 23.7513 88.4587 23.9288C89.1325 24.1108 89.7266 24.3327 90.2542 24.5989C90.7773 24.8652 91.1985 25.1936 91.5221 25.5842C91.8413 25.9747 92.0009 26.4673 92.0009 27.062C92.0009 27.6078 91.8635 28.0782 91.5886 28.4688C91.3137 28.8593 90.9635 29.1788 90.5335 29.4185C90.1034 29.6626 89.6291 29.8401 89.1015 29.9599C88.5784 30.0753 88.073 30.1374 87.5897 30.1374C86.9779 30.1374 86.3839 30.0575 85.8075 29.9022C85.2312 29.7469 84.7036 29.5161 84.2381 29.2099C83.7682 28.9037 83.3736 28.5265 83.0544 28.0694C82.7352 27.6167 82.5269 27.093 82.4338 26.4984C82.385 26.1389 82.252 25.8771 82.0348 25.7129C81.8175 25.5487 81.5737 25.4643 81.3077 25.4643C80.9974 25.4643 80.6959 25.5842 80.4077 25.8149C80.1196 26.0501 79.9733 26.4495 79.9733 27.0131C79.9733 27.4836 80.1151 28.0339 80.3944 28.6685C80.6737 29.3031 81.1215 29.9066 81.7289 30.4747C82.3407 31.0472 83.1298 31.5309 84.1096 31.9303C85.0849 32.3297 86.273 32.5294 87.6607 32.5294C88.6316 32.5294 89.5448 32.414 90.4049 32.1788C91.265 31.9436 92.0142 31.593 92.657 31.1226C93.2954 30.6522 93.8008 30.0664 94.1688 29.3608C94.5368 28.6552 94.7185 27.8297 94.7185 26.8711C94.7185 26.0102 94.5589 25.2824 94.2397 24.6877C93.9205 24.093 93.4949 23.5916 92.9629 23.1833C92.4309 22.775 91.828 22.4421 91.1586 22.1847C90.4847 21.9274 89.7931 21.7055 89.0838 21.5146C88.3744 21.3282 87.6828 21.1463 87.009 20.9732C86.3351 20.8001 85.7366 20.596 85.2046 20.3608C84.6726 20.1256 84.247 19.8371 83.9278 19.491C83.6086 19.1448 83.449 18.7099 83.449 18.1773C83.449 17.7868 83.5465 17.4362 83.7416 17.1345C83.9367 16.8282 84.2115 16.5708 84.5618 16.3623C84.912 16.1492 85.3287 15.985 85.8031 15.8697C86.2819 15.7498 86.8006 15.6921 87.3636 15.6921C87.736 15.6921 88.1306 15.7188 88.534 15.7765C88.9419 15.8297 89.3276 15.9407 89.6956 16.1049C90.0635 16.2691 90.4005 16.4954 90.7019 16.7839C91.0078 17.0723 91.2517 17.454 91.4423 17.9244C91.5664 18.2217 91.7305 18.4347 91.9344 18.5679C92.1383 18.701 92.3556 18.7676 92.5905 18.7676C92.9186 18.7676 93.2201 18.6478 93.4949 18.4037C93.7698 18.1596 93.9072 17.8356 93.9072 17.4273C93.9072 16.9436 93.7521 16.4555 93.4373 15.9717C93.1225 15.488 92.6836 15.0487 92.1117 14.6581C91.5398 14.2676 90.8615 13.9525 90.0724 13.7173C89.2966 13.4865 88.4454 13.3711 87.5277 13.3667L87.5232 13.38ZM103.333 13.38H103.284C102.792 13.3845 102.384 13.5265 102.051 13.8016C101.714 14.0812 101.462 14.4584 101.289 14.9288L95.7072 30.3238C95.6584 30.4658 95.6362 30.6123 95.6362 30.772C95.6362 31.1803 95.787 31.522 96.0929 31.806C96.3988 32.0856 96.7623 32.2276 97.1835 32.2276C97.4805 32.2276 97.7554 32.1522 98.0036 32.0058C98.2519 31.8593 98.4248 31.6418 98.5179 31.3623L100.021 26.667H106.773L108.32 31.1271C108.444 31.4555 108.648 31.7217 108.927 31.9259C109.211 32.13 109.513 32.2321 109.841 32.2321C110.12 32.2321 110.359 32.1788 110.554 32.0679C110.749 31.9569 110.9 31.8238 111.011 31.6552C111.122 31.491 111.197 31.3223 111.246 31.1492C111.295 30.9762 111.317 30.8208 111.317 30.6788C111.317 30.4924 111.277 30.2972 111.202 30.093L105.314 14.9288C105.141 14.4584 104.889 14.0856 104.552 13.8016C104.219 13.522 103.811 13.3845 103.319 13.38H103.333ZM127.153 30.8608V15.0753C127.153 14.6936 127.015 14.3697 126.754 14.1078C126.488 13.8416 126.16 13.7084 125.77 13.7084C125.379 13.7084 125.051 13.8416 124.785 14.1078C124.519 14.3741 124.386 14.7025 124.386 15.093V27.4392L115.994 14.8356C115.746 14.4762 115.471 14.1966 115.174 14.0013C114.877 13.806 114.509 13.7084 114.07 13.7084C113.693 13.7084 113.37 13.8416 113.095 14.1078C112.82 14.3741 112.687 14.7025 112.687 15.093V30.843C112.687 31.2202 112.824 31.5442 113.095 31.8194C113.37 32.0945 113.693 32.2276 114.07 32.2276C114.447 32.2276 114.788 32.0901 115.054 31.8194C115.32 31.5442 115.453 31.2202 115.453 30.843V18.5901L123.872 31.1004C124.107 31.4599 124.373 31.7395 124.67 31.9347C124.967 32.13 125.335 32.2276 125.774 32.2276C126.164 32.2276 126.492 32.0901 126.758 31.8194C127.02 31.5486 127.153 31.2291 127.157 30.8608H127.153ZM40.4457 16.1759C41.3678 16.1759 42.0727 16.42 42.5559 16.9126C43.0392 17.4052 43.283 18.0353 43.283 18.8031C43.283 19.1936 43.1988 19.5487 43.0259 19.8726C42.853 20.1921 42.6269 20.4673 42.3476 20.6936C42.0683 20.92 41.7358 21.0975 41.3634 21.2217C40.9865 21.346 40.6053 21.4081 40.2151 21.4081H34.7045V16.1759H40.4501H40.4457Z" fill="#005559"/>
<path fill-rule="evenodd" clip-rule="evenodd" d="M3.93262 30.1775V35.0724L11.6112 39.5281L25.8688 31.2204L25.8954 14.6538L21.6881 17.1035L21.6704 28.7795L11.6112 34.6375L3.93262 30.1775Z" fill="#005559"/>
<path fill-rule="evenodd" clip-rule="evenodd" d="M3.93262 10.8818V15.7679L11.6422 11.2768L21.6881 17.1037L25.8954 14.654L11.6466 6.38623L3.93262 10.8818Z" fill="#005559"/>
<path fill-rule="evenodd" clip-rule="evenodd" d="M11.425 17.3211C11.1412 17.4897 10.8486 17.6539 10.5649 17.8181C12.1254 18.7279 13.686 19.6243 15.2509 20.5297C14.0451 21.222 12.8392 21.9187 11.6333 22.6155L3.9282 18.1643L3.5957 17.9735L3.9282 17.7782L11.6466 13.2915L19.6931 17.9557C18.4961 18.648 17.2947 19.3359 16.0977 20.0282C14.546 19.1273 12.9855 18.2264 11.425 17.3211Z" fill="#005559"/>
<path fill-rule="evenodd" clip-rule="evenodd" d="M19.6355 27.9453L11.5846 32.6272L3.93265 28.1849L3.53809 27.9586C3.66222 27.8876 3.79965 27.8077 3.93265 27.7278C5.00109 27.1154 6.06952 26.4985 7.13795 25.8861C8.68962 26.787 10.2502 27.6923 11.8107 28.5932C12.0989 28.429 12.3826 28.2604 12.6752 28.0917C11.1147 27.1908 9.54525 26.29 7.98915 25.3846C9.19502 24.6879 10.4009 23.9956 11.6068 23.2988L19.6444 27.9453H19.6355Z" fill="#005559"/>
<path fill-rule="evenodd" clip-rule="evenodd" d="M3.92773 18.71V22.8949C5.16907 23.6094 6.4104 24.3239 7.65173 25.0428C8.8576 24.3461 10.0635 23.6493 11.2693 22.957C9.70437 22.0606 8.14827 21.1597 6.5833 20.2499C5.69663 19.7395 4.80997 19.2248 3.92773 18.71Z" fill="#005559"/>
<path fill-rule="evenodd" clip-rule="evenodd" d="M16.6739 25.6689C17.729 26.2813 18.7841 26.8893 19.8304 27.5017V23.3257C18.425 22.5091 17.0108 21.6925 15.6054 20.876C14.3951 21.5727 13.1893 22.2695 11.9834 22.9618C13.5439 23.8627 15.1089 24.768 16.6739 25.6689Z" fill="#005559"/>
</svg>
