<svg width="54" height="58" viewBox="0 0 54 58" fill="none" xmlns="http://www.w3.org/2000/svg">
<path d="M19.7238 33.6421C20.9208 34.8391 22.5095 35.4992 24.2071 35.4992C25.9046 35.4992 27.4934 34.8391 28.6904 33.6421L37.5953 24.7371C38.3208 24.0117 38.3208 22.8328 37.5953 22.111C36.8699 21.3855 35.691 21.3855 34.9692 22.111L26.0642 31.0159C25.1248 31.9554 23.2893 31.9554 22.3499 31.0159L19.0273 27.6934C18.6646 27.3306 18.1931 27.1565 17.7178 27.1565C17.2426 27.1565 16.7711 27.3343 16.4084 27.6934C15.6829 28.4188 15.6829 29.5977 16.4084 30.3195L19.7418 33.6529L19.7238 33.6421Z" fill="#005559" stroke="#005559"/>
<path d="M10.7711 51.3142L25.0918 56.523C26.3178 56.9692 27.6743 56.9692 28.9004 56.523L43.2211 51.3142C49.0719 49.1886 53 43.5808 53 37.3492V14.3853C53 10.671 50.5117 7.3665 46.9352 6.35453L30.3516 1.61726C29.2562 1.30169 28.1318 1.14209 27 1.14209C25.8682 1.14209 24.7438 1.30169 23.6484 1.61726L7.06477 6.35453C3.49919 7.37746 1 10.6819 1 14.3853V37.3492C1 43.57 4.92838 49.1775 10.7789 51.3142H10.7711ZM4.70635 14.3844C4.70635 12.324 6.08837 10.4851 8.07609 9.91918L24.6597 5.18192C26.1831 4.74664 27.7973 4.74664 29.3207 5.18192L45.9043 9.91918C47.8812 10.485 49.2741 12.324 49.2741 14.3844V37.3483C49.2741 42.0202 46.3287 46.2243 41.9397 47.8236L26.9877 53.2573L12.0356 47.8236C7.65377 46.2276 4.70125 42.02 4.70125 37.3483V14.3844H4.70635Z" fill="#005559" stroke="#005559"/>
</svg>
