<svg width="54" height="58" viewBox="0 0 54 58" fill="none" xmlns="http://www.w3.org/2000/svg">
<path d="M19.7238 33.6425C20.9208 34.8396 22.5095 35.4997 24.2071 35.4997C25.9046 35.4997 27.4934 34.8395 28.6904 33.6425L37.5953 24.7376C38.3208 24.0121 38.3208 22.8333 37.5953 22.1115C36.8699 21.386 35.691 21.386 34.9692 22.1115L26.0642 31.0164C25.1248 31.9559 23.2893 31.9559 22.3499 31.0164L19.0273 27.6938C18.6646 27.3311 18.1931 27.157 17.7178 27.157C17.2426 27.157 16.7711 27.3348 16.4084 27.6938C15.6829 28.4193 15.6829 29.5982 16.4084 30.32L19.7418 33.6534L19.7238 33.6425Z" fill="#A8366F" stroke="#A8366F"/>
<path d="M10.7711 51.3147L25.0918 56.5235C26.3178 56.9696 27.6743 56.9696 28.9004 56.5235L43.2211 51.3147C49.0719 49.1891 53 43.5813 53 37.3497V14.3858C53 10.6715 50.5117 7.36699 46.9352 6.35502L30.3516 1.61775C29.2562 1.30218 28.1318 1.14258 27 1.14258C25.8682 1.14258 24.7438 1.30218 23.6484 1.61775L7.06477 6.35502C3.49919 7.37795 1 10.6824 1 14.3858V37.3497C1 43.5705 4.92838 49.178 10.7789 51.3147H10.7711ZM4.70635 14.3849C4.70635 12.3245 6.08837 10.4856 8.07609 9.91967L24.6597 5.1824C26.1831 4.74713 27.7973 4.74713 29.3207 5.1824L45.9043 9.91967C47.8812 10.4855 49.2741 12.3245 49.2741 14.3849V37.3488C49.2741 42.0207 46.3287 46.2247 41.9397 47.8241L26.9877 53.2578L12.0356 47.8241C7.65377 46.2281 4.70125 42.0205 4.70125 37.3488V14.3849H4.70635Z" fill="#A8366F" stroke="#A8366F"/>
</svg>
