<svg width="58" height="58" viewBox="0 0 58 58" fill="none" xmlns="http://www.w3.org/2000/svg">
<path d="M39.7687 51.7169C36.4046 53.3165 32.725 54.1423 29 54.1335C15.1419 54.1335 3.86671 42.8584 3.86671 29.0003C3.86671 23.0553 5.91025 17.4409 9.66671 12.9381V17.4003H13.5334V5.80029H1.93338V9.66695H7.42791C2.63437 14.9637 -0.0138137 21.8565 5.41927e-05 29.0003C5.41927e-05 44.9908 13.0094 58.0002 29 58.0002C33.3002 58.0092 37.5479 57.0553 41.4313 55.2085L39.7687 51.7169Z" fill="#005559"/>
<path d="M38.6662 15.4668C32.5569 15.4668 27.5477 20.217 27.1088 26.2161C24.9834 24.2767 22.2102 23.2011 19.3329 23.2001H11.5996V30.9334C11.5996 37.3308 16.8041 42.5334 23.1996 42.5334H27.0663V50.2667H30.9329V34.8001H34.7996C41.195 34.8001 46.3996 29.5975 46.3996 23.2001V15.4668H38.6662ZM23.1996 38.6668C18.9347 38.6668 15.4663 35.1984 15.4663 30.9334V27.0668H19.3329C23.5979 27.0668 27.0663 30.5352 27.0663 34.8001V35.933L22.6331 31.4999L19.8994 34.2336L24.3325 38.6668H23.1996ZM42.5329 23.2001C42.5329 27.465 39.0645 30.9334 34.7996 30.9334H33.6666L38.0998 26.5003L35.366 23.7666L30.9329 28.1997V27.0668C30.9329 22.8019 34.4013 19.3335 38.6662 19.3335H42.5329V23.2001Z" fill="#005559"/>
<path d="M57.9996 29C57.9996 13.0094 44.9902 6.24403e-05 28.9997 6.24403e-05C24.6995 -0.00889035 20.4518 0.945015 16.5684 2.79179L18.231 6.28339C21.5951 4.68375 25.2747 3.85797 28.9997 3.86672C42.8578 3.86672 54.133 15.1419 54.133 29C54.133 34.945 52.0894 40.5594 48.333 45.0621V40.6H44.4663V52.2H56.0663V48.3333H50.5718C55.3653 43.0365 58.0135 36.1438 57.9996 29Z" fill="#005559"/>
</svg>
